<svg height="960px" viewBox="0 0 960 960" width="960px" x="0" xmlns="http://www.w3.org/2000/svg" xmlns:xlink="http://www.w3.org/1999/xlink" y="0">
	<defs>
	  <mask id="herringrev" width="16" height="16" 
		viewBox="0 0 16 16"
		patternUnits="userSpaceOnUse"
		transform="translate(16,0) scale(-1.0,1.0)">
	    <g stroke="black" 
	       stroke-width="1" fill="none">
	      <rect x="0" y="0" width="16" height="16" fill="white" 
		    stroke="white"/>
	      <path d="M 0.5 3.5 L 0.5 0.5 L 3.5 0.5"/>
	      <path d="M 2.5 5.5 L 2.5 2.5 L 5.5 2.5"/>
	      <path d="M 4.5 7.5 L 4.5 4.5 L 7.5 4.5"/>
	      <path d="M 6.5 9.5 L 6.5 6.5 L 9.5 6.5"/>
	      <path d="M 8.5 11.5 L 8.5 8.5 L 11.5 8.5"/>
	      <path d="M 10.5 13.5 L 10.5 10.5 L 13.5 10.5"/>
	      <path d="M 12.5 15.5 L 12.5 12.5 L 15.5 12.5"/>
	      <path d="M 14.5 17.5 L 14.5 14.5 L 17.5 14.5"/>
	      
	      <!-- five over, three up. -->
	      <path d="M 5.5 0.5 L 5.5 -2.5"/>
	      <path d="M 7.5 2.5 L 7.5 -0.5"/>
	      <path d="M 9.5 4.5 L 9.5 1.5 L 12.5 1.5"/>
	      <path d="M 11.5 6.5 L 11.5 3.5 L 14.5 3.5"/>
	      <path d="M 13.5 8.5 L 13.5 5.5 L 16.5 5.5"/>
	      <path d="M 15.5 10.5 L 15.5 7.5 L 18.5 7.5"/>
	      <path d="M 14.5 1.5 L 14.5 -1.5 "/>

	      <!-- three left, five down. -->
	      <path d="M -3.5 5.5 L 0.5 5.5"/>
	      <path d="M -0.5 7.5 L 2.5 7.5"/>
	      <path d="M 1.5 12.5 L 1.5 9.5 L 4.5 9.5"/>
	      <path d="M 3.5 14.5 L 3.5 11.5 L 6.5 11.5"/>
	      <path d="M 5.5 16.5 L 5.5 13.5 L 8.5 13.5"/>
	      <path d="M 7.5 18.5 L 7.5 15.5 L 10.5 15.5"/>

	      <path d="M 14.5 1.5 L 14.5 -1.5"/>
	      <path d="M -1.5 14.5 L 1.5 14.5"/>
	    </g>
	  </mask>
	  <pattern id="herringbone" width="16" height="16" 
		   viewBox="0 0 16 16"
		   patternUnits="userSpaceOnUse" >
	    <rect x="0" y="0" width="16" height="16" stroke="black" 
		  fill="black" mask="url(#herringrev)" opacity="0.5"/>
	  </pattern>
	</defs>
	<rect x="0" y="0" width="400" height="400" fill="gray"/>
	<rect x="16" y="16" width="256" height="256" fill="url(#herringbone)"/>
</svg>
